<svg id="Layer_1" data-name="Layer 1" xmlns="http://www.w3.org/2000/svg" viewBox="0 0 818.19 258.87"><defs><style>.cls-1{fill:#fff;}.cls-2{fill:#231f20;}.cls-3{fill:#1d1d1d;}</style></defs><title>logo</title><path class="cls-1" d="M441.9,106.14A32.72,32.72,0,0,0,427.64,44H394.92v91.62H408V109.41h20.41l17.15,26.18h15.7ZM430.65,92.79a23.52,23.52,0,0,1-3,.26H411.28V73.42h3.27a16.37,16.37,0,0,1,16.36,16.36A21.5,21.5,0,0,1,430.65,92.79Z" transform="translate(-20.28 -16.3)"/><path class="cls-2" d="M72.86,143.31a29.41,29.41,0,0,1-49.47-14.14l13.08-13.08,10.73-3.8a29.43,29.43,0,0,1-16-49.86L44.33,49.34A29.41,29.41,0,0,1,93.8,63.48L80.71,76.56,70,80.36a29.43,29.43,0,0,1,16,49.86Zm4.58-77.48,12.43-4.45A26.22,26.22,0,0,0,39,70.15,26.08,26.08,0,0,0,65.13,96.32a13.09,13.09,0,0,1,0,26.18,12.91,12.91,0,0,1-12.3-8.77L40.4,118.18A26.2,26.2,0,1,0,65.13,83.24,13.09,13.09,0,1,1,77.44,65.83ZM56.23,74.34A10.31,10.31,0,0,0,61,79.05,10.26,10.26,0,0,0,56.23,74.34Zm4.72,44a10.31,10.31,0,0,0-4.72-4.71A10.31,10.31,0,0,0,61,118.31Z" transform="translate(-20.28 -16.3)"/><path class="cls-2" d="M220.22,60.33,207.13,73.42H187.5v65.44L174.41,152H154.78V73.42H122.06V53.79L135.15,40.7h85.07ZM138.42,44V57.06h32.72v78.53h13.08V57.06h32.72V44Z" transform="translate(-20.28 -16.3)"/><path class="cls-2" d="M319.68,137.55a49,49,0,1,1-69.24-69.49c2.1-2.23,10.87-10.87,13.09-13.09A48.56,48.56,0,0,1,298.08,40.7a49,49,0,0,1,34.68,83.76C330.67,126.69,321.9,135.33,319.68,137.55ZM298.08,44a45.81,45.81,0,1,0,45.81,45.81A45.86,45.86,0,0,0,298.08,44ZM330.8,89.78a32.72,32.72,0,1,1-32.72-32.72A32.73,32.73,0,0,1,330.8,89.78Zm-19.5,26.31a29.87,29.87,0,0,0,3.14-13.22A29.49,29.49,0,0,0,285,73.42a29.79,29.79,0,0,0-13.21,3.14,29.43,29.43,0,0,0,39.52,39.53Z" transform="translate(-20.28 -16.3)"/><path class="cls-2" d="M454.21,152H430.78l-17.14-26.18h-2.36v13.09L398.19,152H378.56V53.79L391.65,40.7h36a36,36,0,0,1,19,66.62l20.67,31.54ZM441.9,106.14A32.72,32.72,0,0,0,427.64,44H394.92v91.62H408V109.41h20.41l17.15,26.18h15.7Zm-14.26-9.82a19.63,19.63,0,0,0,0-39.26H408V96.32Zm-16.36-3.27V73.42h3.27a16.37,16.37,0,0,1,16.36,16.36,21.5,21.5,0,0,1-.26,3,23.52,23.52,0,0,1-3,.26Z" transform="translate(-20.28 -16.3)"/><path class="cls-2" d="M585.73,152H562.56l-25.25-40.44v27.35L524.22,152H504.59V53.79L517.67,40.7h19.64V76.82l21.07-23L571.46,40.7h26.7L562,80.1l36.78,58.76Zm7.2-16.36L558,79.7,590.7,44H572.9L534,86.38V44H521v91.62H534v-30l14.66-16,28.79,45.94Z" transform="translate(-20.28 -16.3)"/><polygon class="cls-1" points="118.14 27.68 118.14 40.77 150.86 40.77 150.86 119.29 163.95 119.29 163.95 40.77 196.66 40.77 196.66 27.68 118.14 27.68"/><path class="cls-1" d="M298.08,44a45.81,45.81,0,1,0,45.81,45.81A45.86,45.86,0,0,0,298.08,44Zm0,78.53A32.72,32.72,0,1,1,330.8,89.78,32.73,32.73,0,0,1,298.08,122.5Z" transform="translate(-20.28 -16.3)"/><polygon class="cls-1" points="572.65 119.29 537.71 63.41 570.42 27.68 552.63 27.68 513.75 70.08 513.75 27.68 500.67 27.68 500.67 119.29 513.75 119.29 513.75 89.32 528.41 73.35 557.21 119.29 572.65 119.29"/><path class="cls-2" d="M658.1,24.5,652.63,30H636.21v6.84h16.42V45l-5.47,5.48H636.21v6.84l-5.47,5.47h-8.21v-41L628,16.3h30.1Zm-1.37-1.36V17.67H629.37V56h5.47V43.66h16.42V38.18H634.84v-15Z" transform="translate(-20.28 -16.3)"/><path class="cls-2" d="M712.54,62.81h-8.26l-1.75-23.37-4.6,5-5.47,5.47-5.37-5.8-1,13.25-5.48,5.47h-8.2l3.17-41L681,16.3h2.08l14.61,15.81,9.52-10.34,5.47-5.47h2.14l3.12,41ZM711,56h5.52l-2.95-38.3h-.28L697.93,34.3,682.5,17.67h-.22L679.33,56h5.47l2-25.61,11.16,12,11.11-12Z" transform="translate(-20.28 -16.3)"/><polygon class="cls-1" points="636.45 6.84 636.45 1.37 609.09 1.37 609.09 39.67 614.57 39.67 614.57 27.36 630.98 27.36 630.98 21.89 614.57 21.89 614.57 6.84 636.45 6.84"/><polygon class="cls-1" points="690.73 39.67 696.25 39.67 693.3 1.37 693.03 1.37 677.65 18 662.22 1.37 662 1.37 659.05 39.67 664.52 39.67 666.49 14.06 677.65 26.1 688.76 14.06 690.73 39.67"/><path class="cls-3" d="M38.64,188.36,54.22,222.3H51.39l-3.48-7.66H26.59l-3.44,7.66H20.28l15.58-33.94ZM27.72,212.2H46.78l-9.53-21.06Z" transform="translate(-20.28 -16.3)"/><path class="cls-3" d="M68.41,188.36H71v31.42H90.6v2.52H68.41Z" transform="translate(-20.28 -16.3)"/><path class="cls-3" d="M105.61,188.36h2.57v31.42H127.8v2.52H105.61Z" transform="translate(-20.28 -16.3)"/><path class="cls-3" d="M160.31,188.36h27.06v2.52H175.1V222.3h-2.56V190.88H160.31Z" transform="translate(-20.28 -16.3)"/><path class="cls-3" d="M230.58,188.36V222.3H228V206.85H204.69V222.3h-2.57V188.36h2.57v16H228v-16Z" transform="translate(-20.28 -16.3)"/><path class="cls-3" d="M249,188.36h23.33v2.52H251.6v13.53h17.67v2.44H251.6v12.93h20.76v2.52H249Z" transform="translate(-20.28 -16.3)"/><path class="cls-3" d="M340.85,188.36V222.3h-2.57V206.85H315V222.3h-2.56V188.36H315v16h23.33v-16Z" transform="translate(-20.28 -16.3)"/><path class="cls-3" d="M361.86,188.36V222.3h-2.57V188.36Z" transform="translate(-20.28 -16.3)"/><path class="cls-3" d="M376.57,188.36h27.07v2.52H391.36V222.3H388.8V190.88H376.57Z" transform="translate(-20.28 -16.3)"/><path class="cls-3" d="M418.6,213.81V214c0,3.78,4.09,6.57,10.67,6.57,6.31,0,9.7-2.66,9.7-6.31,0-4.44-4.79-6-10.53-7.75-5.53-1.69-12.1-3.78-12.1-9.92,0-5.31,4.7-8.88,12.05-8.88s12.71,3.7,12.71,8.79v.39h-2.52v-.21c0-3.79-3.87-6.57-10.19-6.57-6,0-9.35,2.65-9.35,6.31,0,4.35,4.61,5.87,10.14,7.61s12.53,3.74,12.53,10.1c0,5.35-4.92,8.83-12.44,8.83-7.75,0-13.19-3.65-13.19-8.79v-.35Z" transform="translate(-20.28 -16.3)"/><path class="cls-3" d="M496.75,187.7A17.63,17.63,0,1,1,479,205.33,17.67,17.67,0,0,1,496.75,187.7Zm0,32.68a15.06,15.06,0,1,0-15.1-15A15.09,15.09,0,0,0,496.75,220.38Z" transform="translate(-20.28 -16.3)"/><path class="cls-3" d="M530.43,222.3V188.36h2.31l23.5,29.54V188.36h2.57V222.3H556.5L533,192.79V222.3Z" transform="translate(-20.28 -16.3)"/><path class="cls-3" d="M20.84,240.57H47.91v2.53H35.64v31.42H33.07V243.1H20.84Z" transform="translate(-20.28 -16.3)"/><path class="cls-3" d="M91.12,240.57v33.95H88.55V259.07H65.23v15.45H62.66V240.57h2.57v16.06H88.55V240.57Z" transform="translate(-20.28 -16.3)"/><path class="cls-3" d="M109.57,240.57h23.32v2.53H112.14v13.53H129.8v2.44H112.14V272h20.75v2.53H109.57Z" transform="translate(-20.28 -16.3)"/><path class="cls-3" d="M172.92,240.57H186.2c10.31,0,15.79,7.49,15.79,17s-5.48,17-15.79,17H172.92Zm2.57,2.53V272h10.58c8.57,0,13.36-6.22,13.36-14.45s-4.79-14.44-13.36-14.44Z" transform="translate(-20.28 -16.3)"/><path class="cls-3" d="M230.58,240.57l15.58,33.95h-2.83l-3.48-7.66H218.53l-3.44,7.66h-2.87l15.58-33.95Zm-10.92,23.85h19.06l-9.53-21.06Z" transform="translate(-20.28 -16.3)"/><path class="cls-3" d="M265.92,259.42l12.35-18.85h3l-14.06,21.5v12.45h-2.57V262.11l-14-21.54h3Z" transform="translate(-20.28 -16.3)"/><path class="cls-3" d="M325.57,259.42l12.36-18.85h3l-14.06,21.5v12.45h-2.57V262.11l-14.06-21.54h3Z" transform="translate(-20.28 -16.3)"/><path class="cls-3" d="M367.3,239.92a17.63,17.63,0,1,1-17.71,17.62A17.67,17.67,0,0,1,367.3,239.92Zm0,32.68a15.06,15.06,0,1,0-15.1-15.06A15.09,15.09,0,0,0,367.3,272.6Z" transform="translate(-20.28 -16.3)"/><path class="cls-3" d="M429,240.57v21.11c0,7.61-5,13.49-14.23,13.49s-14.23-5.88-14.23-13.49V240.57h2.57v21c0,6.4,4.09,11.06,11.66,11.06S426.4,268,426.4,261.59v-21Z" transform="translate(-20.28 -16.3)"/><path class="cls-3" d="M477.79,274.52l-10.93-33.95h2.79l9.57,30.12,10-30.12h2.52l10,30.12,9.61-30.12h2.79l-10.92,33.95h-2.83l-9.88-29.81-9.84,29.81Z" transform="translate(-20.28 -16.3)"/><path class="cls-3" d="M528.69,240.57H552v2.53H531.26v13.53h17.67v2.44H531.26V272H552v2.53H528.69Z" transform="translate(-20.28 -16.3)"/><path class="cls-3" d="M583.26,240.57c7.36,0,11.58,5.05,11.58,10.93A10.63,10.63,0,0,1,587.09,262L596,274.52h-3.13l-8.57-12.06a7.38,7.38,0,0,1-1,.05h-12.4v12h-2.57V240.57ZM570.86,243v17.06h12.31c5.92,0,9.14-4,9.14-8.53s-3.22-8.53-9.14-8.53Z" transform="translate(-20.28 -16.3)"/><path class="cls-3" d="M611.54,240.57h23.33v2.53H614.11v13.53h17.67v2.44H614.11V272h20.76v2.53H611.54Z" transform="translate(-20.28 -16.3)"/><path class="cls-3" d="M674.9,240.57h15.32c6.57,0,10,4.09,10,8.75a8.39,8.39,0,0,1-5.13,7.83,8.68,8.68,0,0,1,6.53,8.31c0,4.88-3.88,9.06-9.88,9.06H674.9Zm2.57,2.44v13.23h13.31a6.6,6.6,0,0,0,6.79-6.66c0-3.44-2.52-6.57-7.48-6.57Zm0,15.41v13.7h14c4.66,0,7.48-3.3,7.48-6.92s-2.82-6.78-7.48-6.78Z" transform="translate(-20.28 -16.3)"/><path class="cls-3" d="M733.17,239.92a17.63,17.63,0,1,1-17.71,17.62A17.67,17.67,0,0,1,733.17,239.92Zm0,32.68a15.06,15.06,0,1,0-15.1-15.06A15.09,15.09,0,0,0,733.17,272.6Z" transform="translate(-20.28 -16.3)"/><path class="cls-3" d="M781.81,240.57c7.36,0,11.58,5.05,11.58,10.93A10.62,10.62,0,0,1,785.64,262l8.93,12.54h-3.14l-8.57-12.06a7.38,7.38,0,0,1-1.05.05h-12.4v12h-2.57V240.57ZM769.41,243v17.06h12.32c5.92,0,9.14-4,9.14-8.53s-3.22-8.53-9.14-8.53Z" transform="translate(-20.28 -16.3)"/><path class="cls-3" d="M810.1,274.52V240.57h2.3l23.5,29.55V240.57h2.57v33.95h-2.31L812.66,245v29.51Z" transform="translate(-20.28 -16.3)"/><path class="cls-1" d="M77.44,65.83l12.43-4.45A26.22,26.22,0,0,0,39,70.15,26.08,26.08,0,0,0,65.13,96.32a13.09,13.09,0,0,1,0,26.18,12.91,12.91,0,0,1-12.3-8.77L40.4,118.18A26.2,26.2,0,1,0,65.13,83.24,13.09,13.09,0,1,1,77.44,65.83Z" transform="translate(-20.28 -16.3)"/></svg>