<svg id="Layer_1" data-name="Layer 1" xmlns="http://www.w3.org/2000/svg" viewBox="0 0 349.87 327.6"><defs><style>.cls-1,.cls-4{fill:#1b1b1b;}.cls-1,.cls-2,.cls-3,.cls-4{stroke:#1b1b1b;stroke-miterlimit:10;}.cls-1,.cls-2,.cls-3{fill-rule:evenodd;}.cls-2{fill:#fff;}.cls-3{fill:#597d8e;}</style></defs><title>stork</title><path class="cls-1" d="M408.11,229.33c-.21,4.48-.58,9.38-.63,14.28-.19,20.4-.28,31.74-.4,52.14q-.25,41.67-.51,83.34c0,7.45.18,14.92-.1,22.37-.18,4.53-2.09,5.67-5.72,4.69a73.33,73.33,0,0,0-10.53-1.92,34.58,34.58,0,0,0-7,.09c-.47,0-.86,1-1.28,1.6.52.34,1,.94,1.57,1,3.93.23,7.87.31,11.8.52,2.37.12,4.74.41,7.11.62.07.28.13.56.2.84a12.26,12.26,0,0,1-2.74,1.54c-5.21,1.31-10.49,1-15.75.35a11.93,11.93,0,0,1-4.33-1.16,3.93,3.93,0,0,1-1.78-2.77c-.16-3,1.36-4.79,4.38-5.41a25.7,25.7,0,0,1,6.72-.81,100.31,100.31,0,0,1,10.29,1.58c1.49.26,2.11-.22,2.1-1.76,0-2.13,0-4.26.17-6.39.52-7.86,1.42-15.72,1.56-23.59.24-13.54.1-27.08,0-40.62-.14-12.32-.72-24.63-.73-36.95,0-23.9.24-38.75.43-62.64,0-1.93-.41-2.91-2.48-3.54-15.2-4.64-29.25-11.58-41.15-22.28-23-20.65-34.16-46.9-36.29-77.37-.18-2.6-.56-2.94-3.27-3-10-.26-20.06-.51-30.08-.92-12.22-.5-24.43-1.16-36.65-1.75-3.95-.19-7.9-.31-11.84-.54-9-.55-18-1.09-27-1.77-3.51-.27-7-.92-10.49-1.38-.24,0-.51.15-1.06.32,1.73,2.27,3.28,4.39,4.91,6.45,8.91,11.25,18.18,22.2,25.37,34.77,5.44,9.51,9.21,19.29,8.76,30.36-.39,9.81-3.68,18.88-8.3,27.38-7,12.81-18,19.28-32.57,19-10.86-.21-20.53-4.22-29.14-10.8-8.05-6.15-14.06-13.77-15.57-24a63,63,0,0,1,1.39-24.86c3.43-13.43,10.62-24.72,20-34.78A82.21,82.21,0,0,0,193,117.39c-3-3.77-6-6.93-8.18-10.57-2.84-4.67.37-9.69,5.86-9.79A10.21,10.21,0,0,1,198,100a38,38,0,0,1,4.25-2.42c4.32-1.78,6.61-.79,7.48,3.4a8.91,8.91,0,0,1-.43,4.59,73.09,73.09,0,0,1-3.18,6.83c1.33-.19,2.51-.45,3.7-.53q14.53-1,29.07-1.84c6.07-.36,12.14-.51,18.2-.93,11.87-.84,23.72-1.82,35.59-2.72,9-.68,18-1.35,27-2a26.39,26.39,0,0,0,11.91-4c8.31-5,17-9,26.79-9.84a35.37,35.37,0,0,1,17.36,2.6c10.27,4.49,16.57,13,22,22.21,3.66,6.2,7,12.61,10.68,18.77,3.08,5.12,7.13,9.35,13.32,10.61,7.17,1.46,14.34,3.52,21.58,3.86a122.82,122.82,0,0,0,24-1.65c8.45-1.29,16-5.47,23.73-9.07,6.53-3,13.23-2.1,13.14,7.64-.11,10-.3,16.78-2.24,27.18A72.78,72.78,0,0,1,498.58,186c-8.34,20.78-23,35.16-44.59,41.82-4.76,1.47-9.77,2.11-14.67,3.1-3.55.71-3.6.68-3.54,4.19.1,5.93.39,11.86.38,17.79,0,16.82-.16,24.58-.2,41.4q-.12,54.69-.19,109.38c0,3-1.32,4.44-4.27,4.61-3.26.18-6.54.13-9.78.52a52.16,52.16,0,0,0-8.15,1.84,2.49,2.49,0,0,0-1.41,2c.08.6,1.14,1.22,1.89,1.56a3.75,3.75,0,0,0,2,.08c5.28-.95,10.56-2,15.85-2.9a25.87,25.87,0,0,1,3.74-.07c-1,1-1.91,2.27-3.12,2.85-6.13,2.94-12.76,3-19.36,2.75-2.38-.09-4.82-1.38-5.49-3.8-.62-2.22,1.29-3.77,3.15-4.73a39.29,39.29,0,0,1,17.24-4.11c2.07-.07,2.82-.67,2.82-2.75,0-6.23.1-12.47.22-18.7.31-14.81.67-29.63,1-44.44.31-14.45.87-28.9.85-43.34,0-17-.57-25-.83-42.06-.1-6.39,0-12.79,0-19.18,0-1.09.24-2.37-1.52-2.51-7.47-.62-14.94-1.28-22.48-1.93m91.57-85.25c-.73-4.28-2.43-4.9-6.41-3.14-5.55,2.47-11.08,5-16.78,7a84.3,84.3,0,0,1-34.05,4.87,59.85,59.85,0,0,1-35.36-14.11,5.29,5.29,0,0,1-1.26-1.84c-4.82-10.45-10.5-20.39-18-29.17-5.82-6.84-13.33-10.53-22.26-11.53S348.72,98,340.75,101.1c-4.15,1.62-8.21,3.47-12.31,5.2a3.89,3.89,0,0,0-2.34,3.54c-1.35,10.49.28,20.72,2.29,31,2.18,11.11,5,22.07,10.12,32.14,14.89,29,38.78,46.31,70.68,52.48a82.63,82.63,0,0,0,32.82-.27c9.44-2,18.74-4.21,26.92-9.62,17.29-11.44,27.74-27.29,30.82-47.87.31-2,.66-4.06.79-6.1s.22-12.9-.86-17.48M198,118.61c-2.13,3.3-4.24,6.34-6.13,9.52a253.26,253.26,0,0,1-19.89,28,52.44,52.44,0,0,0-11.72,29.6c-.43,6.06-1.48,12.26,1,18,6.61,15.26,17.67,25.55,34.42,28.46,9,1.56,17-1.62,23.88-7.37,8.9-7.41,15.14-16.56,17.25-28.16,1.84-10.18.14-19.94-3.65-29.45s-9.44-17.63-16-25.35c-5.65-6.67-11.06-13.55-16.59-20.32-.76-.94-1.59-1.82-2.61-3m122.41,1c.26-2.22.5-4,.67-5.83s.25-3.46.4-5.58l-103.3,6.14-.06.45c2.64.23,5.27.52,7.91.7q12.83.87,25.65,1.68c3.71.23,7.42.5,11.13.59,8.89.21,17.79.23,26.68.52,9.56.32,19.11.88,28.66,1.32.74,0,1.48,0,2.26,0M198.1,112.9a11.66,11.66,0,0,0-6.34-11.84c-.74-.34-2.29-.32-2.6.13a4.53,4.53,0,0,0-.74,3.27c.93,3.75,5.63,7.69,9.68,8.44m3.29-1.42c1.33-2.29,2.79-4.53,4-6.9A2.49,2.49,0,0,0,204,101c-1.51-.64-2.76,0-3.63,1.43a4.76,4.76,0,0,0-.7,4.44,39.24,39.24,0,0,1,1.11,4.33l.65.26" transform="translate(-154.9 -89.87)"/><path class="cls-2" d="M500.57,155.4h0c0,2.06.11,4.12,0,6.16s-.48,4.07-.79,6.1c-3.08,20.58-13.53,36.43-30.82,47.87-8.18,5.41-17.48,7.66-26.92,9.62a82.63,82.63,0,0,1-32.82.27c-31.9-6.17-55.79-23.44-70.68-52.48-5.16-10.07-7.94-21-10.12-32.14-2-10.24-3.64-20.47-2.29-31,.21-1.65.76-2.87,2.34-3.54,4.1-1.73,8.16-3.58,12.31-5.2,8-3.12,16-5.89,24.82-4.9a32.85,32.85,0,0,1,22.26,11.52c7.49,8.78,13.17,18.72,18,29.17a5.29,5.29,0,0,0,1.26,1.84,59.85,59.85,0,0,0,35.36,14.11A84.3,84.3,0,0,0,476.49,148c5.7-2,11.24-4.56,16.78-7,4-1.76,5.68-1.14,6.41,3.14a47.57,47.57,0,0,1,.89,11.32m-75.31,42.93c-12.76.13-24.53-2.86-34.78-10.75-6.72-5.17-11.05-11.62-10.42-20.53a21.67,21.67,0,0,1,4.62-12.61c4.42-5.38,10.25-5.94,16.57-4.69,2.22.43,4.42,1,6.66,1.33a6.76,6.76,0,0,0,2.13-.34c-.25-.94-.2-2.4-.8-2.74a16.47,16.47,0,0,0-5.43-2.1c-6.8-1.11-13.34-.5-19.05,3.86s-8.5,10.44-8.78,17.51c-.54,13.82,6.88,22.91,18.59,28a67.51,67.51,0,0,0,25.81,5.56,172.75,172.75,0,0,0,21.11-.54c9.34-1,18.59-2.82,26.37-8.72A13.32,13.32,0,0,0,471,188c2.25-3.64,1.69-6.51-1.7-9.15-4.36-3.39-9.6-4.8-14.8-6.14-3.87-1-7.84-1.59-11.79-2.29-.44-.08-1,.34-1.48.53.42.39.79,1,1.28,1.15,4.94,1.4,10,2.5,14.83,4.16a52,52,0,0,1,9.15,4.54c3.52,2.06,3.57,4.73.17,7.08a34.89,34.89,0,0,1-5.58,3,89.14,89.14,0,0,1-26.95,6.78c-2.94.32-5.9.45-8.85.67m-82.85-84.66c0-1.59-.17-3.45-.32-5a2.09,2.09,0,0,0-1.12-1.42c-.25-.12-1,.46-1.3.9a4.51,4.51,0,0,0-.69,2.09c-.08,2.65-.12,5.31,0,8,0,.67.85,1.3,1.3,2,.67-.65,1.79-1.23,1.91-2a21,21,0,0,0,.19-4.49c0-.74,0,0,0,0m17.48-7.55c-1.37-.37-1.6,2.32-1.68,3.34-.22,2.7,0,5.44-.1,8.15-.06,1.47.79,2,1.9,1.81a2.34,2.34,0,0,0,1.25-1.83c.1-3.57,0-7.14,0-10.71a1.94,1.94,0,0,0-1.34-.76" transform="translate(-154.9 -89.87)"/><path class="cls-2" d="M198,118.61c-2.13,3.3-4.24,6.34-6.13,9.52a253.26,253.26,0,0,1-19.89,28c-6.88,8.62-11.44,16-13,29.26-.43,6.06-.68,13.48,1.81,19.23,6.62,15.26,18.14,24.67,34.89,27.58,9,1.56,17-1.62,23.88-7.37,8.9-7.41,15.14-16.56,17.25-28.16,1.84-10.18.14-19.94-3.65-29.45s-9.44-17.63-16-25.35c-5.65-6.67-11.06-13.55-16.59-20.32-.76-.94-1.59-1.82-2.61-3" transform="translate(-154.9 -89.87)"/><path class="cls-1" d="M320.44,119.56c.26-2.22.5-4,.67-5.83s.25-3.46.4-5.58l-103.3,6.14-.06.45c2.64.23,5.27.51,7.91.7q12.83.87,25.65,1.68c3.71.23,7.42.5,11.13.59,8.89.21,17.79.23,26.68.52,9.56.32,19.11.88,28.66,1.32.74,0,1.48,0,2.26,0" transform="translate(-154.9 -89.87)"/><path class="cls-2" d="M198.1,112.9a11.66,11.66,0,0,0-6.34-11.84c-.74-.33-2.29-.32-2.6.13a4.53,4.53,0,0,0-.74,3.27c.93,3.75,5.63,7.69,9.68,8.44" transform="translate(-154.9 -89.87)"/><path class="cls-2" d="M201.39,111.48c1.33-2.29,2.79-4.53,4-6.9A2.49,2.49,0,0,0,204,101c-1.51-.64-2.76,0-3.63,1.43a4.76,4.76,0,0,0-.7,4.44,39.24,39.24,0,0,1,1.11,4.33l.65.26" transform="translate(-154.9 -89.87)"/><path class="cls-1" d="M425.26,198.33c-12.76.13-24.53-2.86-34.78-10.75-6.72-5.17-11.05-11.62-10.42-20.53a21.67,21.67,0,0,1,4.62-12.61c4.42-5.38,10.25-5.94,16.57-4.69,2.22.43,4.42,1,6.66,1.33a6.76,6.76,0,0,0,2.13-.34c-.25-.94-.2-2.4-.8-2.74a16.44,16.44,0,0,0-5.44-2.1c-6.79-1.12-13.33-.5-19,3.86s-8.5,10.44-8.78,17.51c-.54,13.82,6.88,22.91,18.59,28a67.51,67.51,0,0,0,25.81,5.56,172.75,172.75,0,0,0,21.11-.54c9.34-1,18.59-2.82,26.37-8.72A13.32,13.32,0,0,0,471,188c2.25-3.64,1.69-6.51-1.7-9.15-4.36-3.39-9.6-4.8-14.8-6.14-3.87-1-7.84-1.59-11.79-2.29-.44-.08-1,.34-1.48.53.42.39.79,1,1.28,1.15,4.94,1.4,10,2.5,14.83,4.16a52,52,0,0,1,9.15,4.54c3.53,2.06,3.57,4.73.17,7.08a34.89,34.89,0,0,1-5.58,3,89.14,89.14,0,0,1-26.95,6.78c-2.94.32-5.9.46-8.85.67" transform="translate(-154.9 -89.87)"/><path class="cls-3" d="M342.15,113.41c0-1.59.09-3.19-.06-4.76a2.12,2.12,0,0,0-1.12-1.42c-.25-.12-1,.46-1.3.9a4.51,4.51,0,0,0-.69,2.09c-.08,2.65-.12,5.31,0,8,0,.67.09,1.81,1.3,2s1.79-1.23,1.91-2a24.43,24.43,0,0,0-.11-4.75h0" transform="translate(-154.9 -89.87)"/><path class="cls-4" d="M342.15,113.41c0-1.59.09-3.19-.06-4.76a2.12,2.12,0,0,0-1.12-1.42c-.25-.12-1,.46-1.3.9a4.51,4.51,0,0,0-.69,2.09c-.08,2.65-.12,5.31,0,8,0,.67.09,1.81,1.3,2s1.79-1.23,1.91-2a24.43,24.43,0,0,0-.11-4.75Z" transform="translate(-154.9 -89.87)"/><path class="cls-3" d="M360.07,106.06c-1.42-.31-1.78,2.38-1.86,3.4-.22,2.7,0,5.44-.11,8.15-.05,1.47.8,2,1.91,1.81a2.34,2.34,0,0,0,1.25-1.83c.1-3.57,0-7.14,0-10.71a1.33,1.33,0,0,0-1.16-.82" transform="translate(-154.9 -89.87)"/><path class="cls-4" d="M360.07,106.06c-1.42-.31-1.78,2.38-1.86,3.4-.22,2.7,0,5.44-.11,8.15-.05,1.47.8,2,1.91,1.81a2.34,2.34,0,0,0,1.25-1.83c.1-3.57,0-7.14,0-10.71A1.33,1.33,0,0,0,360.07,106.06Z" transform="translate(-154.9 -89.87)"/></svg>